<svg width="185" height="36" viewBox="0 0 185 36" fill="none" xmlns="http://www.w3.org/2000/svg">
<path d="M25.5676 20.5282L34.9324 20.5472L34.9427 15.5239L25.5566 15.5049C26.0594 17.1405 26.0632 18.8903 25.5676 20.5282Z" fill="#115284"/>
<path d="M21.4307 25.56L28.0266 32.2239L31.5638 28.6788L24.9587 22.0057C24.1628 23.5191 22.9337 24.7573 21.4307 25.56Z" fill="#115284"/>
<path d="M14.9736 26.1691V35.5731H19.9659V26.1715C18.3393 26.6739 16.6003 26.6739 14.9736 26.1715V26.1691Z" fill="#115284"/>
<path d="M28.0256 3.77669L19.9661 11.9194V0.427002H14.9738V11.9194L6.9137 3.77669L3.37649 7.3218L11.4488 15.4767L0.00973569 15.4534L0 20.4767L11.4725 20.5L3.37649 28.6788L6.9137 32.2239L31.5628 7.3218L28.0256 3.77669Z" fill="#F05535"/>
<path d="M52.0894 13.0057C52.8162 12.1373 53.6898 11.4055 54.67 10.844C55.6337 10.296 56.754 10.0222 58.0308 10.0226C59.0478 10.0226 59.97 10.228 60.7974 10.6387C61.6371 11.0602 62.3662 11.6753 62.9255 12.4341C63.5168 13.2203 63.9748 14.1939 64.2995 15.3548C64.6241 16.5157 64.7866 17.8461 64.7871 19.346C64.7976 20.6198 64.6153 21.8877 64.2464 23.1061C63.886 24.2675 63.3688 25.2739 62.6948 26.1253C62.0349 26.9655 61.1991 27.6486 60.2471 28.1261C59.2898 28.608 58.2081 28.8492 57.0019 28.8497C55.9368 28.8497 55.0353 28.678 54.2974 28.3347C53.5479 27.9821 52.8665 27.4982 52.285 26.9055V34.6408H48.4717V10.3619H50.7774C51.2976 10.3619 51.6287 10.6061 51.7705 11.0944L52.0894 13.0057ZM52.285 24.01C52.8167 24.7005 53.3989 25.1857 54.0316 25.4655C54.6951 25.752 55.4109 25.8952 56.1328 25.8858C57.624 25.8858 58.7856 25.338 59.6176 24.2424C60.4497 23.1467 60.8666 21.5159 60.8683 19.3499C60.8683 18.2302 60.7737 17.2744 60.5846 16.4826C60.3954 15.6908 60.1234 15.0447 59.7685 14.5443C59.4435 14.069 58.9958 13.6922 58.4737 13.4544C57.9304 13.2213 57.3445 13.1057 56.754 13.1152C55.7839 13.1152 54.9473 13.3265 54.2444 13.7493C53.5414 14.172 52.8883 14.7765 52.285 15.5627V24.01Z" fill="#222222"/>
<path d="M72.0935 2.14442V28.5831H68.2808V2.14442H72.0935Z" fill="#222222"/>
<path d="M76.0839 12.8982C78.1289 10.9811 80.5643 10.0226 83.3903 10.0226C84.4299 10.0226 85.355 10.1921 86.1658 10.5312C86.9446 10.8493 87.6418 11.341 88.205 11.9693C88.7679 12.6117 89.1961 13.3621 89.464 14.1754C89.7533 15.0273 89.8981 15.9715 89.8986 17.0079V28.5838H88.1961C87.8293 28.5838 87.5523 28.5271 87.3653 28.4138C87.1783 28.3005 87.0185 28.0714 86.886 27.7263L86.5141 26.2457C86.0783 26.6413 85.6225 27.0139 85.1484 27.362C84.7114 27.6823 84.2454 27.9603 83.7565 28.1924C83.2631 28.4233 82.7441 28.594 82.2106 28.701C81.612 28.8189 81.003 28.8759 80.3931 28.8709C79.6989 28.8765 79.008 28.7741 78.3449 28.5671C77.7398 28.3803 77.1807 28.0668 76.7044 27.6471C76.2345 27.2242 75.8622 26.7028 75.6135 26.1195C75.3476 25.5127 75.2147 24.7981 75.2147 23.9758C75.2199 23.2538 75.4124 22.5456 75.7733 21.9216C76.1456 21.2547 76.7604 20.6563 77.6176 20.1262C78.4748 19.5962 79.6038 19.1587 81.0047 18.8136C82.4064 18.4677 84.1355 18.2712 86.192 18.224V17.0092C86.192 15.6994 85.915 14.7228 85.3612 14.0795C84.8073 13.4362 83.9915 13.1143 82.9136 13.1139C82.1803 13.1139 81.5656 13.2062 81.0692 13.3907C80.6217 13.5526 80.1887 13.7529 79.7751 13.9894C79.4083 14.204 79.083 14.4035 78.7992 14.5881C78.5314 14.7679 78.2169 14.8642 77.895 14.8649C77.657 14.872 77.4234 14.7998 77.2303 14.6595C77.0468 14.5225 76.8928 14.3492 76.7779 14.1503L76.0839 12.8982ZM86.192 20.6155C84.8325 20.6631 83.6858 20.7734 82.7519 20.9464C81.818 21.1193 81.0613 21.3395 80.4819 21.6069C79.9021 21.8755 79.4852 22.1942 79.2313 22.5628C78.9808 22.9175 78.8467 23.3423 78.8478 23.7776C78.8377 24.1543 78.9072 24.5288 79.0517 24.8764C79.1786 25.1685 79.3732 25.4257 79.6192 25.6264C79.8703 25.8273 80.1602 25.9733 80.4704 26.0551C80.8213 26.1484 81.1831 26.1939 81.546 26.1903C82.5391 26.1903 83.3933 26.0028 84.1086 25.6277C84.8239 25.2526 85.5184 24.7078 86.192 23.9932V20.6155Z" fill="#222222"/>
<path d="M97.63 12.7733C98.0086 12.3788 98.4144 12.0116 98.8442 11.6745C99.2622 11.3487 99.7106 11.0645 100.183 10.826C100.663 10.5853 101.169 10.3996 101.691 10.2724C102.26 10.1384 102.843 10.0735 103.428 10.0793C104.421 10.0793 105.293 10.246 106.045 10.5795C106.775 10.8985 107.424 11.3811 107.942 11.9906C108.474 12.632 108.87 13.3771 109.103 14.1793C109.372 15.0923 109.504 16.0408 109.494 16.9931V28.587H105.703V16.9931C105.703 15.7666 105.422 14.8138 104.86 14.1349C104.298 13.4559 103.444 13.1165 102.298 13.1165C101.473 13.1108 100.66 13.3135 99.9332 13.7061C99.1702 14.1286 98.4797 14.672 97.8882 15.3155V28.5883H94.0755V10.3619H96.3723C96.8925 10.3619 97.2235 10.6061 97.3654 11.0945L97.63 12.7733Z" fill="#222222"/>
<path d="M113.236 12.8982C115.281 10.9811 117.717 10.0226 120.542 10.0226C121.582 10.0226 122.508 10.1921 123.318 10.5312C124.097 10.8493 124.794 11.341 125.357 11.9693C125.92 12.6119 126.348 13.3623 126.616 14.1754C126.906 15.0273 127.051 15.9715 127.051 17.0079V28.5838H125.348C124.981 28.5838 124.704 28.5271 124.517 28.4138C124.33 28.3005 124.171 28.0714 124.038 27.7263L123.666 26.2457C123.23 26.6413 122.775 27.0139 122.301 27.362C121.864 27.6823 121.398 27.9603 120.909 28.1924C120.416 28.4233 119.898 28.5942 119.365 28.7016C118.767 28.8196 118.158 28.8765 117.548 28.8715C116.854 28.8772 116.163 28.7747 115.5 28.5677C114.895 28.3809 114.335 28.0674 113.859 27.6478C113.389 27.2248 113.017 26.7034 112.768 26.1202C112.502 25.5133 112.369 24.7988 112.369 23.9765C112.375 23.2544 112.567 22.5462 112.928 21.9223C113.301 21.2554 113.916 20.6569 114.772 20.1269C115.629 19.5969 116.758 19.1593 118.159 18.8143C119.561 18.4684 121.29 18.2718 123.347 18.2246V17.0098C123.347 15.7 123.07 14.7235 122.516 14.0802C121.962 13.4368 121.146 13.115 120.068 13.1145C119.335 13.1145 118.721 13.2068 118.224 13.3913C117.776 13.5533 117.343 13.7536 116.93 13.99C116.563 14.2046 116.238 14.4042 115.954 14.5887C115.686 14.7686 115.372 14.8649 115.05 14.8655C114.812 14.8726 114.578 14.8004 114.385 14.6602C114.201 14.5231 114.048 14.3499 113.933 14.151L113.236 12.8982ZM123.344 20.6155C121.985 20.6631 120.838 20.7734 119.904 20.9464C118.97 21.1193 118.213 21.3395 117.634 21.6069C117.055 21.8755 116.638 22.1942 116.383 22.5628C116.133 22.9175 115.999 23.3423 116 23.7776C115.99 24.1543 116.059 24.5288 116.204 24.8764C116.331 25.1685 116.525 25.4257 116.771 25.6264C117.022 25.8273 117.312 25.9733 117.623 26.0552C117.973 26.1478 118.334 26.1928 118.696 26.189C119.689 26.189 120.543 26.0015 121.258 25.6264C121.974 25.2513 122.668 24.7065 123.342 23.9919L123.344 20.6155Z" fill="#222222"/>
<path d="M146.576 2.14442V28.5832H144.27C143.761 28.5832 143.436 28.339 143.295 27.8506L142.96 25.8685C142.233 26.7367 141.36 27.4685 140.38 28.0302C139.416 28.5778 138.295 28.8514 137.017 28.8509C136 28.8509 135.077 28.6456 134.25 28.2349C133.411 27.8137 132.681 27.1985 132.122 26.4395C131.531 25.6537 131.072 24.6801 130.748 23.5188C130.423 22.3575 130.261 21.0271 130.26 19.5275C130.26 18.1701 130.44 16.9135 130.801 15.7578C131.161 14.602 131.678 13.5986 132.352 12.7476C133.015 11.9062 133.854 11.2229 134.809 10.7468C135.772 10.2644 136.851 10.0235 138.045 10.0239C139.11 10.0239 140.015 10.1934 140.759 10.5325C141.509 10.8761 142.188 11.358 142.763 11.9532V2.14442H146.576ZM142.763 14.8456C142.231 14.1546 141.645 13.6722 141.007 13.3984C140.351 13.1213 139.646 12.9816 138.934 12.9877C137.443 12.9877 136.278 13.5385 135.44 14.6402C134.602 15.7419 134.183 17.3706 134.181 19.5263C134.181 20.6455 134.276 21.6011 134.465 22.3929C134.654 23.1847 134.926 23.8308 135.281 24.3312C135.605 24.8067 136.053 25.1836 136.575 25.4211C137.119 25.6545 137.705 25.77 138.295 25.7603C139.264 25.7603 140.1 25.5489 140.804 25.1262C141.508 24.7035 142.161 24.105 142.764 23.3308L142.763 14.8456Z" fill="#222222"/>
<path d="M150.494 12.8982C152.539 10.9811 154.975 10.0226 157.801 10.0226C158.841 10.0226 159.766 10.1921 160.576 10.5312C161.355 10.8494 162.053 11.3411 162.616 11.9693C163.179 12.6119 163.607 13.3623 163.875 14.1754C164.165 15.0273 164.31 15.9715 164.31 17.0079V28.5838H162.607C162.24 28.5838 161.962 28.5271 161.773 28.4138C161.584 28.3005 161.424 28.0714 161.294 27.7263L160.922 26.2457C160.487 26.6415 160.031 27.0141 159.557 27.362C159.12 27.6823 158.653 27.9604 158.164 28.1924C157.672 28.4233 157.154 28.5942 156.622 28.7016C156.023 28.8196 155.414 28.8765 154.804 28.8715C154.11 28.8772 153.419 28.7747 152.756 28.5677C152.151 28.3809 151.592 28.0674 151.115 27.6478C150.645 27.225 150.273 26.7036 150.025 26.1202C149.759 25.5133 149.626 24.7988 149.626 23.9765C149.631 23.2544 149.823 22.5462 150.184 21.9223C150.557 21.2554 151.172 20.6569 152.029 20.1269C152.885 19.5969 154.014 19.1593 155.416 18.8143C156.817 18.4684 158.546 18.2718 160.603 18.2246V17.0098C160.603 15.7 160.326 14.7235 159.772 14.0802C159.218 13.4368 158.403 13.115 157.325 13.1145C156.591 13.1145 155.977 13.2068 155.48 13.3913C155.033 13.5534 154.599 13.7537 154.186 13.99C153.819 14.2046 153.494 14.4042 153.21 14.5887C152.942 14.7685 152.628 14.8648 152.306 14.8655C152.068 14.8724 151.834 14.8002 151.641 14.6602C151.457 14.5233 151.303 14.35 151.189 14.151L150.494 12.8982ZM160.603 20.6155C159.243 20.6631 158.096 20.7734 157.162 20.9464C156.228 21.1193 155.472 21.3395 154.892 21.6069C154.313 21.8755 153.897 22.1942 153.642 22.5628C153.392 22.9175 153.258 23.3423 153.259 23.7776C153.249 24.1543 153.319 24.5289 153.463 24.8764C153.59 25.1685 153.785 25.4257 154.031 25.6264C154.282 25.8274 154.572 25.9734 154.882 26.0552C155.232 26.1477 155.593 26.1928 155.954 26.189C156.948 26.189 157.802 26.0015 158.517 25.6264C159.232 25.2513 159.927 24.7065 160.601 23.9919L160.603 20.6155Z" fill="#222222"/>
<path d="M184.047 10.3619L174.083 33.7634C173.974 34.0093 173.814 34.2288 173.613 34.4071C173.429 34.5621 173.148 34.6395 172.77 34.6395H169.949L173.283 27.3491L165.903 10.3619H169.219C169.538 10.3619 169.784 10.4363 169.955 10.5852C170.123 10.7276 170.254 10.9081 170.339 11.1118L174.648 21.4556C174.754 21.753 174.851 22.0476 174.94 22.3394C175.03 22.6313 175.115 22.9317 175.196 23.2407C175.291 22.9313 175.385 22.6274 175.48 22.3291C175.574 22.0309 175.681 21.7332 175.799 21.4363L179.931 11.1105C180.015 10.8949 180.16 10.7087 180.348 10.5749C180.535 10.4348 180.762 10.3596 180.995 10.3606L184.047 10.3619Z" fill="#222222"/>
</svg>
